<svg id="visual" viewBox="0 0 960 540" width="960" height="540" xmlns="http://www.w3.org/2000/svg" xmlns:xlink="http://www.w3.org/1999/xlink" version="1.1"><rect x="0" y="0" width="960" height="540" fill="#040b11"></rect><defs><linearGradient id="grad1_0" x1="43.8%" y1="100%" x2="100%" y2="0%"><stop offset="14.444444444444446%" stop-color="#040b11" stop-opacity="1"></stop><stop offset="85.55555555555554%" stop-color="#040b11" stop-opacity="1"></stop></linearGradient></defs><defs><linearGradient id="grad2_0" x1="0%" y1="100%" x2="56.3%" y2="0%"><stop offset="14.444444444444446%" stop-color="#040b11" stop-opacity="1"></stop><stop offset="85.55555555555554%" stop-color="#040b11" stop-opacity="1"></stop></linearGradient></defs><g transform="translate(960, 540)"><path d="M-405 0C-386.8 -53.7 -368.7 -107.5 -333.5 -138.1C-298.4 -168.8 -246.3 -176.4 -218.5 -218.5C-190.7 -260.6 -187.3 -337.3 -155 -374.2C-122.6 -411 -61.3 -408 0 -405L0 0Z" fill="#F7770F"></path></g><g transform="translate(0, 0)"><path d="M405 0C375.6 49.4 346.1 98.9 311.3 129C276.6 159.1 236.5 169.8 214.3 214.3C192 258.7 187.7 336.8 155 374.2C122.3 411.6 61.1 408.3 0 405L0 0Z" fill="#F7770F"></path></g></svg>