<svg id="visual" viewBox="0 0 960 540" width="960" height="540" xmlns="http://www.w3.org/2000/svg">
    <path d="M0 158C30 180 60 190 90 186C120 182 150 164 180 162C210 160 240 174 270 174C300 174 330 160 360 150C390 140 420 120 450 125C480 130 510 150 540 145C570 140 600 120 630 132C660 144 690 172 720 174C750 176 780 150 810 145C840 140 870 170 900 190C930 210 960 210 960 210V540H0V158Z" fill="#ffa35e">
        <animate attributeName="d" dur="2s" repeatCount="indefinite" values="
            M0 158C30 180 60 190 90 186C120 182 150 164 180 162C210 160 240 174 270 174C300 174 330 160 360 150C390 140 420 120 450 125C480 130 510 150 540 145C570 140 600 120 630 132C660 144 690 172 720 174C750 176 780 150 810 145C840 140 870 170 900 190C930 210 960 210 960 210V540H0V158Z;
            M0 158C30 180 60 190 90 186C120 182 150 164 180 162C210 160 240 174 270 174C300 174 330 170 360 160C390 150 420 130 450 135C480 140 510 160 540 155C570 150 600 130 630 142C660 154 690 182 720 184C750 186 780 160 810 155C840 150 870 180 900 200C930 220 960 220 960 220V540H0V158Z;
            M0 158C30 180 60 190 90 186C120 182 150 164 180 162C210 160 240 174 270 174C300 174 330 160 360 150C390 140 420 120 450 125C480 130 510 150 540 145C570 140 600 120 630 132C660 144 690 172 720 174C750 176 780 150 810 145C840 140 870 170 900 190C930 210 960 210 960 210V540H0V158Z"/>
    </path>
    <path d="M0 206C30 220 60 230 90 230C120 230 150 220 180 215C210 210 240 200 270 200C300 200 330 215 360 218C390 221 420 210 450 210C480 210 510 220 540 220C570 220 600 210 630 210C660 210 690 220 720 220C750 220 780 210 810 200C840 190 870 170 900 165C930 160 960 170 960 170V540H0V206Z" fill="#fc8e3b">
        <animate attributeName="d" dur="2s" repeatCount="indefinite" values="
            M0 206C30 220 60 230 90 230C120 230 150 220 180 215C210 210 240 200 270 200C300 200 330 215 360 218C390 221 420 210 450 210C480 210 510 220 540 220C570 220 600 210 630 210C660 210 690 220 720 220C750 220 780 210 810 200C840 190 870 170 900 165C930 160 960 170 960 170V540H0V206Z;
            M0 206C30 210 60 220 90 220C120 220 150 210 180 205C210 200 240 190 270 190C300 190 330 205 360 208C390 211 420 200 450 200C480 200 510 210 540 210C570 210 600 200 630 200C660 200 690 210 720 210C750 210 780 200 810 190C840 180 870 160 900 155C930 150 960 160 960 160V540H0V206Z;
            M0 206C30 220 60 230 90 230C120 230 150 220 180 215C210 210 240 200 270 200C300 200 330 215 360 218C390 221 420 210 450 210C480 210 510 220 540 220C570 220 600 210 630 210C660 210 690 220 720 220C750 220 780 210 810 200C840 190 870 170 900 165C930 160 960 170 960 170V540H0V206Z"/>
    </path>
    <path d="M0 320C30 330 60 340 90 340C120 340 150 330 180 325C210 320 240 310 270 310C300 310 330 325 360 325C390 325 420 315 450 315C480 315 510 320 540 320C570 320 600 310 630 310C660 310 690 320 720 320C750 320 780 310 810 300C840 290 870 280 900 275C930 270 960 280 960 280V540H0V320Z" fill="#f7770f">
        <animate attributeName="d" dur="2s" repeatCount="indefinite" values="
            M0 320C30 330 60 340 90 340C120 340 150 330 180 325C210 320 240 310 270 310C300 310 330 325 360 325C390 325 420 315 450 315C480 315 510 320 540 320C570 320 600 310 630 310C660 310 690 320 720 320C750 320 780 310 810 300C840 290 870 280 900 275C930 270 960 280 960 280V540H0V320Z;
            M0 320C30 330 60 340 90 340C120 340 150 330 180 325C210 320 240 310 270 310C300 310 330 320 360 320C390 320 420 310 450 310C480 310 510 320 540 320C570 320 600 310 630 310C660 310 690 320 720 320C750 320 780 310 810 300C840 290 870 280 900 275C930 270 960 280 960 280V540H0V320Z;
            M0 320C30 330 60 340 90 340C120 340 150 330 180 325C210 320 240 310 270 310C300 310 330 325 360 325C390 325 420 315 450 315C480 315 510 320 540 320C570 320 600 310 630 310C660 310 690 320 720 320C750 320 780 310 810 300C840 290 870 280 900 275C930 270 960 280 960 280V540H0V320Z"/>
    </path>
    <path d="M0 449C30 440 60 430 90 430C120 430 150 440 180 445C210 450 240 455 270 455C300 455 330 450 360 450C390 450 420 445 450 445C480 445 510 450 540 450C570 450 600 455 630 455C660 455 690 450 720 450C750 450 780 445 810 445C840 445 870 440 900 445C930 450 960 455 960 455V540H0V449Z" fill="#f9c9b5">
        <animate attributeName="d" dur="2s" repeatCount="indefinite" values="
            M0 449C30 440 60 430 90 430C120 430 150 440 180 445C210 450 240 455 270 455C300 455 330 450 360 450C390 450 420 445 450 445C480 445 510 450 540 450C570 450 600 455 630 455C660 455 690 450 720 450C750 450 780 445 810 445C840 445 870 440 900 445C930 450 960 455 960 455V540H0V449Z;
            M0 449C30 440 60 430 90 430C120 430 150 440 180 445C210 450 240 455 270 455C300 455 330 450 360 450C390 450 420 445 450 445C480 445 510 450 540 450C570 450 600 455 630 455C660 455 690 450 720 450C750 450 780 445 810 445C840 445 870 440 900 445C930 450 960 455 960 455V540H0V449Z;
            M0 449C30 440 60 430 90 430C120 430 150 440 180 445C210 450 240 455 270 455C300 455 330 450 360 450C390 450 420 445 450 445C480 445 510 450 540 450C570 450 600 455 630 455C660 455 690 450 720 450C750 450 780 445 810 445C840 445 870 440 900 445C930 450 960 455 960 455V540H0V449Z"/>
    </path>
</svg>
